<svg xmlns="http://www.w3.org/2000/svg" viewBox="0 0 24 24">
  <rect width="24" height="24" fill="#fff" rx="5"/>
  <g fill="#197790">
    <path d="m5 12-2.5 3 6.8 6.6 2.7-.2.1-2.5L5 12Zm4.3-9.6L12 5.2 5 12l-2.6-.3-.1-2.5 7-6.8ZM19 12l2.6-3-6.8-6.6-2.7.2-.1 2.5 7 6.8Z"/>
    <path d="M14.7 21.6 12 18.8l7-6.8 2.6.3.1 2.5-7 6.8Z"/>
    <path fill-rule="evenodd" d="M14 10.3c0-1.5-1.2-2.8-2.8-2.8a2.7 2.7 0 0 0-2.7 2.7c0 .6.3 1.2.6 1.7l-1.6 1.6c-.4.4.3 1 .7.7l1.7-1.7c.4.2.8.4 1.3.4a2.7 2.7 0 0 0 1.7-.6v2.6h1.8c.8 0 1.6-.4 1.6-1.3 0-.5-.3-1-.8-1.1a1 1 0 0 0 .6-1c0-.2 0-.4-.2-.6-.2-.4-.7-.6-1.3-.6h-.7Zm-.3.7h.9c.8 0 .8 1.2 0 1.2h-.9V11Zm-2.5.6c.8 0 1.5-.7 1.5-1.4a1.4 1.4 0 0 0-1.5-1.4c-.7 0-1.4.6-1.4 1.4s.7 1.4 1.4 1.4Zm2.5 1.3V14h1c1 0 .9-1.2 0-1.2h-1Z"/>
  </g>
</svg>
